name C:\Users\antoi\Documents\MyRepositories\upper-imu-dc\Results\main_tracking\Case_69\FLX01_angularVelocities_bodyFrame.mot
datacolumns 4
datarows 82
range 0.51000000 1.32000000
endheader 
time	radius_imu_x	radius_imu_y	radius_imu_z	
          0.51000000	         -0.34093193	          0.15881657	          0.04046215	
          0.52000000	         -0.34148099	          0.16212876	          0.04887061	
          0.53000000	         -0.34229034	          0.16845486	          0.05956626	
          0.54000000	         -0.34463119	          0.17824070	          0.07090585	
          0.55000000	         -0.34906314	          0.19165681	          0.08228818	
          0.56000000	         -0.35589135	          0.20856483	          0.09345490	
          0.57000000	         -0.36527736	          0.22843505	          0.10428385	
          0.58000000	         -0.37729040	          0.25035034	          0.11470612	
          0.59000000	         -0.39193119	          0.27306246	          0.12468008	
          0.60000000	         -0.40914861	          0.29509667	          0.13418321	
          0.61000000	         -0.42885313	          0.31489693	          0.14321086	
          0.62000000	         -0.45092951	          0.33099955	          0.15177714	
          0.63000000	         -0.47524984	          0.34221151	          0.15992046	
          0.64000000	         -0.50168802	          0.34775917	          0.16770845	
          0.65000000	         -0.53012995	          0.34735451	          0.17523990	
          0.66000000	         -0.56046945	          0.34116566	          0.18264756	
          0.67000000	         -0.59260256	          0.32974946	          0.19009771	
          0.68000000	         -0.62642541	          0.31398797	          0.19778746	
          0.69000000	         -0.66183097	          0.29505207	          0.20594130	
          0.70000000	         -0.69869419	          0.27437210	          0.21479948	
          0.71000000	         -0.73687601	          0.25360476	          0.22461042	
          0.72000000	         -0.77622498	          0.23456619	          0.23562768	
          0.73000000	         -0.81656321	          0.21911766	          0.24809814	
          0.74000000	         -0.85768133	          0.20902318	          0.26225018	
          0.75000000	         -0.89933090	          0.20581257	          0.27827845	
          0.76000000	         -0.94121458	          0.21063126	          0.29631688	
          0.77000000	         -0.98296875	          0.22412138	          0.31639528	
          0.78000000	         -1.02412451	          0.24638980	          0.33835005	
          0.79000000	         -1.06408587	          0.27653699	          0.36175376	
          0.80000000	         -1.10300917	          0.31448081	          0.38688176	
          0.81000000	         -1.14233106	          0.35683279	          0.41481828	
          0.82000000	         -1.17937310	          0.40486247	          0.44324170	
          0.83000000	         -1.21332543	          0.45071475	          0.46983360	
          0.84000000	         -1.24580318	          0.48826826	          0.49480305	
          0.85000000	         -1.27738589	          0.51879825	          0.51774205	
          0.86000000	         -1.30867700	          0.54058951	          0.53845568	
          0.87000000	         -1.33950403	          0.55238357	          0.55710858	
          0.88000000	         -1.36966107	          0.55259445	          0.57395333	
          0.89000000	         -1.39888338	          0.54052626	          0.58935538	
          0.90000000	         -1.42694575	          0.51535196	          0.60374316	
          0.91000000	         -1.45353968	          0.47703263	          0.61756408	
          0.92000000	         -1.47841178	          0.42600705	          0.63130945	
          0.93000000	         -1.50135437	          0.36318158	          0.64546612	
          0.94000000	         -1.52220054	          0.29012445	          0.66048407	
          0.95000000	         -1.54085769	          0.20896986	          0.67673349	
          0.96000000	         -1.55730489	          0.12242020	          0.69447088	
          0.97000000	         -1.57158305	          0.03364420	          0.71381770	
          0.98000000	         -1.58378705	         -0.05386371	          0.73474543	
          0.99000000	         -1.59406221	         -0.13648588	          0.75707352	
          1.00000000	         -1.60259073	         -0.21072386	          0.78048108	
          1.01000000	         -1.60958073	         -0.27344333	          0.80453242	
          1.02000000	         -1.61525127	         -0.32208536	          0.82870676	
          1.03000000	         -1.61981984	         -0.35480345	          0.85243065	
          1.04000000	         -1.62349374	         -0.37051816	          0.87510874	
          1.05000000	         -1.62646579	         -0.36890509	          0.89615163	
          1.06000000	         -1.62891167	         -0.35034723	          0.91500141	
          1.07000000	         -1.63098670	         -0.31586273	          0.93115470	
          1.08000000	         -1.63282219	         -0.26700121	          0.94418190	
          1.09000000	         -1.63452243	         -0.20570750	          0.95373976	
          1.10000000	         -1.63616233	         -0.13416393	          0.95957628	
          1.11000000	         -1.63778673	         -0.05463901	          0.96152846	
          1.12000000	         -1.63941094	          0.03063478	          0.95951472	
          1.13000000	         -1.64102164	          0.11954567	          0.95352533	
          1.14000000	         -1.64257881	          0.21014877	          0.94361408	
          1.15000000	         -1.64401912	          0.30068393	          0.92989396	
          1.16000000	         -1.64525877	          0.38957431	          0.91253261	
          1.17000000	         -1.64620042	          0.47542619	          0.89175311	
          1.18000000	         -1.64674813	          0.55706218	          0.86785285	
          1.19000000	         -1.64679087	          0.63348731	          0.84114456	
          1.20000000	         -1.64622378	          0.70394565	          0.81198126	
          1.21000000	         -1.64496696	          0.76796025	          0.78077152	
          1.22000000	         -1.64294434	          0.82529077	          0.74790937	
          1.23000000	         -1.64008955	          0.87593143	          0.71376912	
          1.24000000	         -1.63634741	          0.92007817	          0.67869513	
          1.25000000	         -1.63166770	          0.95806484	          0.64298554	
          1.26000000	         -1.62599936	          0.99029114	          0.60688917	
          1.27000000	         -1.61928595	          1.01715188	          0.57061021	
          1.28000000	         -1.61146454	          1.03898423	          0.53431999	
          1.29000000	         -1.60246794	          1.05604331	          0.49817108	
          1.30000000	         -1.59222989	          1.06850731	          0.46230903	
          1.31000000	         -1.58069197	          1.07650180	          0.42687891	
          1.32000000	         -1.56781068	          1.08012957	          0.39202593	
